mtllib T-NUT-M8.mtl
o bosch_3842345081_9cc1lwl8dpcdfqyc3wh3uey9q_1
v -4 0 8
v -3.884 0.957 8
v -7.506 0 8
v -3.542 1.859 8
v -3.753 6.5 8
v -2.994 2.652 8
v -2.272 3.292 8
v -2.272 -3.292 8
v -2.994 -2.652 8
v -3.753 -6.5 8
v -3.542 -1.859 8
v -3.884 -0.957 8
v 2.272 -3.292 8
v 1.418 -3.74 8
v 3.753 -6.5 8
v 0.482 -3.971 8
v -0.482 -3.971 8
v -1.418 -3.74 8
v 4 0 8
v 3.884 -0.957 8
v 7.506 0 8
v 3.542 -1.859 8
v 2.994 -2.652 8
v 2.272 3.292 8
v 2.994 2.652 8
v 3.753 6.5 8
v 3.542 1.859 8
v 3.884 0.957 8
v -1.418 3.74 8
v -0.482 3.971 8
v 0.482 3.971 8
v 1.418 3.74 8
v 4 0 0
v 3.884 -0.957 0
v 3.542 -1.859 0
v 2.994 -2.652 0
v 2.272 -3.292 0
v 1.418 -3.74 0
v 0.482 -3.971 0
v -0.482 -3.971 0
v -1.418 -3.74 0
v -2.272 -3.292 0
v -2.994 -2.652 0
v -3.542 -1.859 0
v -3.884 -0.957 0
v -4 0 0
v 3.884 0.957 0
v 3.542 1.859 0
v 2.994 2.652 0
v 2.272 3.292 0
v 1.418 3.74 0
v 0.482 3.971 0
v -0.482 3.971 0
v -1.418 3.74 0
v -2.272 3.292 0
v -2.994 2.652 0
v -3.542 1.859 0
v -3.884 0.957 0
v -10.383 -1.565 0
v -10.5 0 0
v -10.383 1.565 0
v -10.034 3.095 0
v -9.46 4.556 0
v -8.676 5.915 0
v -7.697 7.142 0
v -6.547 8.209 0
v -5.25 9.093 0
v -3.836 9.774 0
v -2.336 10.237 0
v -0.785 10.471 0
v 0.785 10.471 0
v 2.336 10.237 0
v 3.836 9.774 0
v 5.25 9.093 0
v 6.547 8.209 0
v 7.697 7.142 0
v 8.676 5.915 0
v 9.46 4.556 0
v 10.034 3.095 0
v 10.383 1.565 0
v 10.5 0 0
v 10.383 -1.565 0
v 10.034 -3.095 0
v 9.46 -4.556 0
v 8.676 -5.915 0
v 7.697 -7.142 0
v 6.547 -8.209 0
v 5.25 -9.093 0
v 3.836 -9.774 0
v 2.336 -10.237 0
v 0.785 -10.471 0
v -0.785 -10.471 0
v -2.336 -10.237 0
v -3.836 -9.774 0
v -5.25 -9.093 0
v -6.547 -8.209 0
v -7.697 -7.142 0
v -8.676 -5.915 0
v -9.46 -4.556 0
v -10.034 -3.095 0
v 10.5 0 1.2
v 10.383 -1.565 1.2
v 10.034 -3.095 1.2
v 9.46 -4.556 1.2
v 8.676 -5.915 1.2
v 7.697 -7.142 1.2
v 6.547 -8.209 1.2
v 5.25 -9.093 1.2
v 3.836 -9.774 1.2
v 2.336 -10.237 1.2
v 0.785 -10.471 1.2
v -0.785 -10.471 1.2
v -2.336 -10.237 1.2
v -3.836 -9.774 1.2
v -5.25 -9.093 1.2
v -6.547 -8.209 1.2
v -7.697 -7.142 1.2
v -8.676 -5.915 1.2
v -9.46 -4.556 1.2
v -10.034 -3.095 1.2
v -10.383 -1.565 1.2
v -10.5 0 1.2
v 10.383 1.565 1.2
v 10.034 3.095 1.2
v 9.46 4.556 1.2
v 8.676 5.915 1.2
v 7.697 7.142 1.2
v 6.547 8.209 1.2
v 5.25 9.093 1.2
v 3.836 9.774 1.2
v 2.336 10.237 1.2
v 0.785 10.471 1.2
v -0.785 10.471 1.2
v -2.336 10.237 1.2
v -3.836 9.774 1.2
v -5.25 9.093 1.2
v -6.547 8.209 1.2
v -7.697 7.142 1.2
v -8.676 5.915 1.2
v -9.46 4.556 1.2
v -10.034 3.095 1.2
v -10.383 1.565 1.2
v 7.506 0 2.929
v 7.018 0.844 3.181
v 6.551 1.654 3.361
v 6.089 2.453 3.472
v 5.629 3.25 3.509
v 5.169 4.047 3.472
v 4.708 4.846 3.361
v 4.24 5.656 3.181
v 3.753 6.5 2.929
v 2.778 6.5 3.181
v 1.843 6.5 3.361
v 0.92 6.5 3.472
v 0 6.5 3.509
v -0.92 6.5 3.472
v -1.843 6.5 3.361
v -2.778 6.5 3.181
v -3.753 6.5 2.929
v -4.24 5.656 3.181
v -4.708 4.846 3.361
v -5.169 4.047 3.472
v -5.629 3.25 3.509
v -6.089 2.453 3.472
v -6.551 1.654 3.361
v -7.018 0.844 3.181
v -7.506 0 2.929
v 7.018 -0.844 3.181
v 6.551 -1.654 3.361
v 6.089 -2.453 3.472
v 5.629 -3.25 3.509
v 5.169 -4.047 3.472
v 4.708 -4.846 3.361
v 4.24 -5.656 3.181
v 3.753 -6.5 2.929
v 2.778 -6.5 3.181
v 1.843 -6.5 3.361
v 0.92 -6.5 3.472
v 0 -6.5 3.509
v -0.92 -6.5 3.472
v -1.843 -6.5 3.361
v -2.778 -6.5 3.181
v -3.753 -6.5 2.929
v -4.24 -5.656 3.181
v -4.708 -4.846 3.361
v -5.169 -4.047 3.472
v -5.629 -3.25 3.509
v -6.089 -2.453 3.472
v -6.551 -1.654 3.361
v -7.018 -0.844 3.181
vn 0 0 1
vn -1 0 0
vn -0.971 0.239 0
vn -0.885 0.465 0
vn -0.749 0.663 0
vn -0.568 0.823 0
vn -0.355 0.935 0
vn -0.121 0.993 0
vn 0.121 0.993 0
vn 0.355 0.935 0
vn 0.568 0.823 0
vn 0.749 0.663 0
vn 0.885 0.465 0
vn 0.971 0.239 0
vn 1 0 0
vn -0.971 -0.239 0
vn -0.885 -0.465 0
vn -0.749 -0.663 0
vn -0.568 -0.823 0
vn -0.355 -0.935 0
vn -0.121 -0.993 0
vn 0.121 -0.993 0
vn 0.355 -0.935 0
vn 0.568 -0.823 0
vn 0.749 -0.663 0
vn 0.885 -0.465 0
vn 0.971 -0.239 0
vn 0 0 -1
vn 0.989 -0.149 0
vn 0.956 -0.295 0
vn 0.901 -0.434 0
vn 0.826 -0.563 0
vn 0.733 -0.68 0
vn 0.623 -0.782 0
vn 0.5 -0.866 0
vn 0.365 -0.931 0
vn 0.223 -0.975 0
vn 0.075 -0.997 0
vn -0.075 -0.997 0
vn -0.223 -0.975 0
vn -0.365 -0.931 0
vn -0.5 -0.866 0
vn -0.623 -0.782 0
vn -0.733 -0.68 0
vn -0.826 -0.563 0
vn -0.901 -0.434 0
vn -0.956 -0.295 0
vn -0.989 -0.149 0
vn 0.989 0.149 0
vn 0.956 0.295 0
vn 0.901 0.434 0
vn 0.826 0.563 0
vn 0.733 0.68 0
vn 0.623 0.782 0
vn 0.5 0.866 0
vn 0.365 0.931 0
vn 0.223 0.975 0
vn 0.075 0.997 0
vn -0.075 0.997 0
vn -0.223 0.975 0
vn -0.365 0.931 0
vn -0.5 0.866 0
vn -0.623 0.782 0
vn -0.733 0.68 0
vn -0.826 0.563 0
vn -0.901 0.434 0
vn -0.956 0.295 0
vn -0.989 0.149 0
vn 0.5 0 0.866
vn 0.496 0.06 0.866
vn 0.494 0.075 0.866
vn 0.485 0.122 0.866
vn 0.478 0.147 0.866
vn 0.464 0.187 0.866
vn 0.45 0.217 0.866
vn 0.433 0.25 0.866
vn 0.413 0.282 0.866
vn 0.394 0.308 0.866
vn 0.367 0.34 0.866
vn 0.348 0.359 0.866
vn 0.312 0.391 0.866
vn 0.3 0.4 0.866
vn 0.25 0.433 0.866
vn 0.197 0.46 0.866
vn 0.183 0.465 0.866
vn 0.136 0.481 0.866
vn 0.111 0.487 0.866
vn 0.07 0.495 0.866
vn 0.037 0.499 0.866
vn 0 0.5 0.866
vn -0.037 0.499 0.866
vn -0.07 0.495 0.866
vn -0.111 0.487 0.866
vn -0.136 0.481 0.866
vn -0.183 0.465 0.866
vn -0.197 0.46 0.866
vn -0.25 0.433 0.866
vn -0.3 0.4 0.866
vn -0.312 0.391 0.866
vn -0.348 0.359 0.866
vn -0.367 0.34 0.866
vn -0.394 0.308 0.866
vn -0.413 0.282 0.866
vn -0.433 0.25 0.866
vn -0.45 0.217 0.866
vn -0.464 0.187 0.866
vn -0.478 0.147 0.866
vn -0.485 0.122 0.866
vn -0.494 0.075 0.866
vn -0.496 0.06 0.866
vn -0.5 0 0.866
vn 0.496 -0.06 0.866
vn 0.494 -0.075 0.866
vn 0.485 -0.122 0.866
vn 0.478 -0.147 0.866
vn 0.464 -0.187 0.866
vn 0.45 -0.217 0.866
vn 0.433 -0.25 0.866
vn 0.413 -0.282 0.866
vn 0.394 -0.308 0.866
vn 0.367 -0.34 0.866
vn 0.348 -0.359 0.866
vn 0.312 -0.391 0.866
vn 0.3 -0.4 0.866
vn 0.25 -0.433 0.866
vn 0.197 -0.46 0.866
vn 0.183 -0.465 0.866
vn 0.136 -0.481 0.866
vn 0.111 -0.487 0.866
vn 0.07 -0.495 0.866
vn 0.037 -0.499 0.866
vn 0 -0.5 0.866
vn -0.037 -0.499 0.866
vn -0.07 -0.495 0.866
vn -0.111 -0.487 0.866
vn -0.136 -0.481 0.866
vn -0.183 -0.465 0.866
vn -0.197 -0.46 0.866
vn -0.25 -0.433 0.866
vn -0.3 -0.4 0.866
vn -0.312 -0.391 0.866
vn -0.348 -0.359 0.866
vn -0.367 -0.34 0.866
vn -0.394 -0.308 0.866
vn -0.413 -0.282 0.866
vn -0.433 -0.25 0.866
vn -0.45 -0.217 0.866
vn -0.464 -0.187 0.866
vn -0.478 -0.147 0.866
vn -0.485 -0.122 0.866
vn -0.494 -0.075 0.866
vn -0.496 -0.06 0.866
vn -0.866 -0.5 0
vn 0 -1 0
vn 0.866 -0.5 0
vn 0.866 0.5 0
vn 0 1 0
vn -0.866 0.5 0
g bosch_3842345081_9cc1lwl8dpcdfqyc3wh3uey9q_1
usemtl bosch_3842345081_9cc1lwl8dpcdfqyc3wh3uey9q_color_1
f 1//1 2//1 3//1
f 3//1 2//1 4//1
f 3//1 4//1 5//1
f 5//1 4//1 6//1
f 5//1 6//1 7//1
f 8//1 9//1 10//1
f 10//1 9//1 11//1
f 10//1 11//1 3//1
f 3//1 11//1 12//1
f 3//1 12//1 1//1
f 13//1 14//1 15//1
f 15//1 14//1 16//1
f 15//1 16//1 10//1
f 10//1 16//1 17//1
f 10//1 17//1 18//1
f 19//1 20//1 21//1
f 21//1 20//1 22//1
f 21//1 22//1 15//1
f 15//1 22//1 23//1
f 15//1 23//1 13//1
f 24//1 25//1 26//1
f 26//1 25//1 27//1
f 26//1 27//1 21//1
f 21//1 27//1 28//1
f 21//1 28//1 19//1
f 29//1 30//1 5//1
f 5//1 30//1 31//1
f 5//1 31//1 26//1
f 26//1 31//1 32//1
f 26//1 32//1 24//1
f 7//1 29//1 5//1
f 18//1 8//1 10//1
f 19//2 33//2 20//3
f 20//3 33//2 34//3
f 20//3 34//3 22//4
f 22//4 34//3 35//4
f 22//4 35//4 23//5
f 23//5 35//4 36//5
f 23//5 36//5 13//6
f 13//6 36//5 37//6
f 13//6 37//6 14//7
f 14//7 37//6 38//7
f 14//7 38//7 16//8
f 16//8 38//7 39//8
f 16//8 39//8 17//9
f 17//9 39//8 40//9
f 17//9 40//9 18//10
f 18//10 40//9 41//10
f 18//10 41//10 8//11
f 8//11 41//10 42//11
f 8//11 42//11 9//12
f 9//12 42//11 43//12
f 9//12 43//12 11//13
f 11//13 43//12 44//13
f 11//13 44//13 12//14
f 12//14 44//13 45//14
f 12//14 45//14 1//15
f 1//15 45//14 46//15
f 33//2 19//2 47//16
f 47//16 19//2 28//16
f 47//16 28//16 48//17
f 48//17 28//16 27//17
f 48//17 27//17 49//18
f 49//18 27//17 25//18
f 49//18 25//18 50//19
f 50//19 25//18 24//19
f 50//19 24//19 51//20
f 51//20 24//19 32//20
f 51//20 32//20 52//21
f 52//21 32//20 31//21
f 52//21 31//21 53//22
f 53//22 31//21 30//22
f 53//22 30//22 54//23
f 54//23 30//22 29//23
f 54//23 29//23 55//24
f 55//24 29//23 7//24
f 55//24 7//24 56//25
f 56//25 7//24 6//25
f 56//25 6//25 57//26
f 57//26 6//25 4//26
f 57//26 4//26 58//27
f 58//27 4//26 2//27
f 58//27 2//27 46//15
f 46//15 2//27 1//15
f 59//28 60//28 46//28
f 46//28 60//28 61//28
f 46//28 61//28 58//28
f 58//28 61//28 62//28
f 58//28 62//28 57//28
f 57//28 62//28 63//28
f 57//28 63//28 64//28
f 57//28 64//28 56//28
f 56//28 64//28 65//28
f 56//28 65//28 66//28
f 56//28 66//28 55//28
f 55//28 66//28 67//28
f 55//28 67//28 54//28
f 54//28 67//28 68//28
f 54//28 68//28 69//28
f 54//28 69//28 53//28
f 53//28 69//28 70//28
f 53//28 70//28 52//28
f 52//28 70//28 71//28
f 52//28 71//28 72//28
f 52//28 72//28 51//28
f 51//28 72//28 73//28
f 51//28 73//28 74//28
f 51//28 74//28 50//28
f 50//28 74//28 75//28
f 50//28 75//28 49//28
f 49//28 75//28 76//28
f 49//28 76//28 77//28
f 49//28 77//28 48//28
f 48//28 77//28 78//28
f 48//28 78//28 79//28
f 48//28 79//28 47//28
f 47//28 79//28 80//28
f 47//28 80//28 33//28
f 33//28 80//28 81//28
f 33//28 81//28 82//28
f 33//28 82//28 34//28
f 34//28 82//28 83//28
f 34//28 83//28 35//28
f 35//28 83//28 84//28
f 35//28 84//28 85//28
f 35//28 85//28 36//28
f 36//28 85//28 86//28
f 36//28 86//28 87//28
f 36//28 87//28 37//28
f 37//28 87//28 88//28
f 37//28 88//28 38//28
f 38//28 88//28 89//28
f 38//28 89//28 90//28
f 38//28 90//28 39//28
f 39//28 90//28 91//28
f 39//28 91//28 92//28
f 39//28 92//28 40//28
f 40//28 92//28 93//28
f 40//28 93//28 41//28
f 41//28 93//28 94//28
f 41//28 94//28 95//28
f 41//28 95//28 42//28
f 42//28 95//28 96//28
f 42//28 96//28 43//28
f 43//28 96//28 97//28
f 43//28 97//28 98//28
f 43//28 98//28 44//28
f 44//28 98//28 99//28
f 44//28 99//28 100//28
f 44//28 100//28 45//28
f 45//28 100//28 59//28
f 45//28 59//28 46//28
f 81//15 101//15 82//29
f 82//29 101//15 102//29
f 82//29 102//29 103//30
f 82//29 103//30 83//30
f 83//30 103//30 104//31
f 83//30 104//31 84//31
f 84//31 104//31 105//32
f 84//31 105//32 85//32
f 85//32 105//32 106//33
f 85//32 106//33 86//33
f 86//33 106//33 107//34
f 86//33 107//34 87//34
f 87//34 107//34 108//35
f 87//34 108//35 88//35
f 88//35 108//35 109//36
f 88//35 109//36 89//36
f 89//36 109//36 110//37
f 89//36 110//37 90//37
f 90//37 110//37 111//38
f 90//37 111//38 91//38
f 91//38 111//38 112//39
f 91//38 112//39 92//39
f 92//39 112//39 113//40
f 92//39 113//40 93//40
f 93//40 113//40 114//41
f 93//40 114//41 94//41
f 94//41 114//41 115//42
f 94//41 115//42 95//42
f 95//42 115//42 116//43
f 95//42 116//43 96//43
f 96//43 116//43 117//44
f 96//43 117//44 97//44
f 97//44 117//44 118//45
f 97//44 118//45 98//45
f 98//45 118//45 119//46
f 98//45 119//46 99//46
f 99//46 119//46 120//47
f 99//46 120//47 100//47
f 100//47 120//47 121//48
f 100//47 121//48 59//48
f 59//48 121//48 122//2
f 59//48 122//2 60//2
f 101//15 81//15 123//49
f 123//49 81//15 80//49
f 123//49 80//49 79//50
f 123//49 79//50 124//50
f 124//50 79//50 78//51
f 124//50 78//51 125//51
f 125//51 78//51 77//52
f 125//51 77//52 126//52
f 126//52 77//52 76//53
f 126//52 76//53 127//53
f 127//53 76//53 75//54
f 127//53 75//54 128//54
f 128//54 75//54 74//55
f 128//54 74//55 129//55
f 129//55 74//55 73//56
f 129//55 73//56 130//56
f 130//56 73//56 72//57
f 130//56 72//57 131//57
f 131//57 72//57 71//58
f 131//57 71//58 132//58
f 132//58 71//58 70//59
f 132//58 70//59 133//59
f 133//59 70//59 69//60
f 133//59 69//60 134//60
f 134//60 69//60 68//61
f 134//60 68//61 135//61
f 135//61 68//61 67//62
f 135//61 67//62 136//62
f 136//62 67//62 66//63
f 136//62 66//63 137//63
f 137//63 66//63 65//64
f 137//63 65//64 138//64
f 138//64 65//64 64//65
f 138//64 64//65 139//65
f 139//65 64//65 63//66
f 139//65 63//66 140//66
f 140//66 63//66 62//67
f 140//66 62//67 141//67
f 141//67 62//67 61//68
f 141//67 61//68 142//68
f 142//68 61//68 60//2
f 142//68 60//2 122//2
f 143//69 101//69 144//70
f 144//70 101//69 123//71
f 144//70 123//71 145//72
f 145//72 123//71 124//73
f 145//72 124//73 146//74
f 146//74 124//73 125//75
f 146//74 125//75 147//76
f 147//76 125//75 126//77
f 147//76 126//77 148//78
f 148//78 126//77 127//79
f 148//78 127//79 149//80
f 149//80 127//79 128//81
f 149//80 128//81 150//82
f 150//82 128//81 129//83
f 150//82 129//83 151//83
f 151//83 129//83 152//84
f 129//83 130//85 152//84
f 152//84 130//85 153//86
f 130//85 131//87 153//86
f 153//86 131//87 154//88
f 131//87 132//89 154//88
f 154//88 132//89 155//90
f 132//89 133//91 155//90
f 155//90 133//91 156//92
f 133//91 134//93 156//92
f 156//92 134//93 157//94
f 134//93 135//95 157//94
f 157//94 135//95 158//96
f 135//95 136//97 158//96
f 158//96 136//97 159//97
f 159//97 136//97 160//98
f 160//98 136//97 137//99
f 160//98 137//99 161//100
f 161//100 137//99 138//101
f 161//100 138//101 162//102
f 162//102 138//101 139//103
f 162//102 139//103 163//104
f 163//104 139//103 140//105
f 163//104 140//105 164//106
f 164//106 140//105 141//107
f 164//106 141//107 165//108
f 165//108 141//107 142//109
f 165//108 142//109 166//110
f 166//110 142//109 122//111
f 166//110 122//111 167//111
f 143//69 168//112 101//69
f 101//69 168//112 102//113
f 168//112 169//114 102//113
f 102//113 169//114 103//115
f 169//114 170//116 103//115
f 103//115 170//116 104//117
f 170//116 171//118 104//117
f 104//117 171//118 105//119
f 171//118 172//120 105//119
f 105//119 172//120 106//121
f 172//120 173//122 106//121
f 106//121 173//122 107//123
f 173//122 174//124 107//123
f 107//123 174//124 108//125
f 174//124 175//125 108//125
f 108//125 175//125 176//126
f 108//125 176//126 109//127
f 109//127 176//126 177//128
f 109//127 177//128 110//129
f 110//129 177//128 178//130
f 110//129 178//130 111//131
f 111//131 178//130 179//132
f 111//131 179//132 112//133
f 112//133 179//132 180//134
f 112//133 180//134 113//135
f 113//135 180//134 181//136
f 113//135 181//136 114//137
f 114//137 181//136 182//138
f 114//137 182//138 115//139
f 115//139 182//138 183//139
f 115//139 183//139 184//140
f 115//139 184//140 116//141
f 116//141 184//140 185//142
f 116//141 185//142 117//143
f 117//143 185//142 186//144
f 117//143 186//144 118//145
f 118//145 186//144 187//146
f 118//145 187//146 119//147
f 119//147 187//146 188//148
f 119//147 188//148 120//149
f 120//149 188//148 189//150
f 120//149 189//150 121//151
f 121//151 189//150 190//152
f 121//151 190//152 122//111
f 122//111 190//152 167//111
f 167//153 190//153 3//153
f 3//153 190//153 189//153
f 3//153 189//153 188//153
f 188//153 187//153 3//153
f 3//153 187//153 10//153
f 187//153 186//153 10//153
f 10//153 186//153 185//153
f 10//153 185//153 184//153
f 184//153 183//153 10//153
f 183//154 182//154 10//154
f 10//154 182//154 181//154
f 10//154 181//154 180//154
f 180//154 179//154 10//154
f 10//154 179//154 15//154
f 179//154 178//154 15//154
f 15//154 178//154 177//154
f 15//154 177//154 176//154
f 176//154 175//154 15//154
f 175//155 174//155 15//155
f 15//155 174//155 173//155
f 15//155 173//155 172//155
f 172//155 171//155 15//155
f 15//155 171//155 21//155
f 171//155 170//155 21//155
f 21//155 170//155 169//155
f 21//155 169//155 168//155
f 168//155 143//155 21//155
f 143//156 144//156 21//156
f 21//156 144//156 145//156
f 21//156 145//156 146//156
f 146//156 147//156 21//156
f 21//156 147//156 26//156
f 147//156 148//156 26//156
f 26//156 148//156 149//156
f 26//156 149//156 150//156
f 150//156 151//156 26//156
f 151//157 152//157 26//157
f 26//157 152//157 153//157
f 26//157 153//157 154//157
f 154//157 155//157 26//157
f 26//157 155//157 5//157
f 155//157 156//157 5//157
f 5//157 156//157 157//157
f 5//157 157//157 158//157
f 158//157 159//157 5//157
f 159//158 160//158 5//158
f 5//158 160//158 161//158
f 5//158 161//158 162//158
f 162//158 163//158 5//158
f 5//158 163//158 3//158
f 163//158 164//158 3//158
f 3//158 164//158 165//158
f 3//158 165//158 166//158
f 166//158 167//158 3//158
l 3 5
l 10 3
l 15 10
l 21 15
l 26 21
l 5 26
l 19 28
l 28 27
l 27 25
l 25 24
l 24 32
l 32 31
l 31 30
l 30 29
l 29 7
l 7 6
l 6 4
l 4 2
l 2 1
l 19 20
l 20 22
l 22 23
l 23 13
l 13 14
l 14 16
l 16 17
l 17 18
l 18 8
l 8 9
l 9 11
l 11 12
l 12 1
l 33 34
l 34 35
l 35 36
l 36 37
l 37 38
l 38 39
l 39 40
l 40 41
l 41 42
l 42 43
l 43 44
l 44 45
l 45 46
l 1 46
l 19 33
l 33 47
l 47 48
l 48 49
l 49 50
l 50 51
l 51 52
l 52 53
l 53 54
l 54 55
l 55 56
l 56 57
l 57 58
l 58 46
l 81 80
l 80 79
l 79 78
l 78 77
l 77 76
l 76 75
l 75 74
l 74 73
l 73 72
l 72 71
l 71 70
l 70 69
l 69 68
l 68 67
l 67 66
l 66 65
l 65 64
l 64 63
l 63 62
l 62 61
l 61 60
l 81 82
l 82 83
l 83 84
l 84 85
l 85 86
l 86 87
l 87 88
l 88 89
l 89 90
l 90 91
l 91 92
l 92 93
l 93 94
l 94 95
l 95 96
l 96 97
l 97 98
l 98 99
l 99 100
l 100 59
l 59 60
l 101 102
l 102 103
l 103 104
l 104 105
l 105 106
l 106 107
l 107 108
l 108 109
l 109 110
l 110 111
l 111 112
l 112 113
l 113 114
l 114 115
l 115 116
l 116 117
l 117 118
l 118 119
l 119 120
l 120 121
l 121 122
l 60 122
l 81 101
l 101 123
l 123 124
l 124 125
l 125 126
l 126 127
l 127 128
l 128 129
l 129 130
l 130 131
l 131 132
l 132 133
l 133 134
l 134 135
l 135 136
l 136 137
l 137 138
l 138 139
l 139 140
l 140 141
l 141 142
l 142 122
l 122 167
l 159 160
l 160 161
l 161 162
l 162 163
l 163 164
l 164 165
l 165 166
l 166 167
l 151 152
l 152 153
l 153 154
l 154 155
l 155 156
l 156 157
l 157 158
l 158 159
l 143 144
l 144 145
l 145 146
l 146 147
l 147 148
l 148 149
l 149 150
l 150 151
l 101 143
l 175 174
l 174 173
l 173 172
l 172 171
l 171 170
l 170 169
l 169 168
l 168 143
l 183 182
l 182 181
l 181 180
l 180 179
l 179 178
l 178 177
l 177 176
l 176 175
l 167 190
l 190 189
l 189 188
l 188 187
l 187 186
l 186 185
l 185 184
l 184 183
l 3 167
l 10 183
l 15 175
l 21 143
l 26 151
l 5 159
